<svg width="24" height="24" viewBox="0 0 24 24" fill="none" xmlns="http://www.w3.org/2000/svg">
<path d="M8 21H16M12 16V21M12 16C15.314 16 18 14.012 18 11L17 5M12 16C8.686 16 6 14.012 6 11L7 5M17 5C17 5.53043 16.4732 6.03914 15.5355 6.41421C14.5979 6.78929 13.3261 7 12 7C10.6739 7 9.40215 6.78929 8.46447 6.41421C7.52678 6.03914 7 5.53043 7 5M17 5C17 4.46957 16.4732 3.96086 15.5355 3.58579C14.5979 3.21071 13.3261 3 12 3C10.6739 3 9.40215 3.21071 8.46447 3.58579C7.52678 3.96086 7 4.46957 7 5" stroke="#303741" stroke-width="2" stroke-linecap="round" stroke-linejoin="round"/>
</svg>
