<svg width="24" height="24" viewBox="0 0 24 24" fill="none" xmlns="http://www.w3.org/2000/svg">
<path d="M13.414 20.8999C13.039 21.2746 12.5306 21.485 12.0005 21.485C11.4704 21.485 10.962 21.2746 10.587 20.8999L6.34299 16.6569C5.38197 15.6958 4.68168 14.5056 4.30819 13.1988C3.93471 11.8919 3.90036 10.5114 4.20837 9.18758C4.51638 7.86375 5.1566 6.64023 6.06862 5.63245C6.98064 4.62468 8.13439 3.86589 9.421 3.42768C10.7076 2.98947 12.0847 2.88629 13.4222 3.12788C14.7597 3.36946 16.0137 3.94785 17.0657 4.80846C18.1177 5.66908 18.9331 6.78353 19.435 8.04668C19.9368 9.30983 20.1086 10.68 19.934 12.0279M19 16L17 19H21L19 22M9 11C9 11.7956 9.31607 12.5587 9.87868 13.1213C10.4413 13.6839 11.2044 14 12 14C12.7956 14 13.5587 13.6839 14.1213 13.1213C14.6839 12.5587 15 11.7956 15 11C15 10.2044 14.6839 9.44129 14.1213 8.87868C13.5587 8.31607 12.7956 8 12 8C11.2044 8 10.4413 8.31607 9.87868 8.87868C9.31607 9.44129 9 10.2044 9 11Z" stroke="#303741" stroke-width="2" stroke-linecap="round" stroke-linejoin="round"/>
</svg>
