<svg width="24" height="24" viewBox="0 0 24 24" fill="none" xmlns="http://www.w3.org/2000/svg">
<path d="M12.7941 21.3218C12.4263 21.4806 12.0193 21.5253 11.6257 21.4501C11.2322 21.3748 10.8704 21.1831 10.5871 20.8998L6.34311 16.6568C5.38184 15.6952 4.68153 14.5045 4.30829 13.197C3.93505 11.8896 3.90121 10.5086 4.20995 9.18439C4.5187 7.86023 5.15985 6.63661 6.07286 5.62907C6.98587 4.62152 8.14061 3.86331 9.42805 3.42601C10.7155 2.98872 12.0931 2.88678 13.4309 3.12981C14.7687 3.37285 16.0225 3.95284 17.0738 4.81503C18.1252 5.67721 18.9395 6.79313 19.4398 8.05743C19.94 9.32173 20.1098 10.6927 19.9331 12.0408M16 18.9999H22M19 15.9999V21.9999M9 10.9999C9 11.7955 9.31607 12.5586 9.87868 13.1212C10.4413 13.6838 11.2044 13.9999 12 13.9999C12.7956 13.9999 13.5587 13.6838 14.1213 13.1212C14.6839 12.5586 15 11.7955 15 10.9999C15 10.2042 14.6839 9.44117 14.1213 8.87856C13.5587 8.31595 12.7956 7.99988 12 7.99988C11.2044 7.99988 10.4413 8.31595 9.87868 8.87856C9.31607 9.44117 9 10.2042 9 10.9999Z" stroke="#303741" stroke-width="2" stroke-linecap="round" stroke-linejoin="round"/>
</svg>
