<svg width="24" height="24" viewBox="0 0 24 24" fill="none" xmlns="http://www.w3.org/2000/svg">
<path d="M9.4421 9.43188C9.09016 10.0054 8.94124 10.6805 9.01927 11.3489C9.09729 12.0172 9.39773 12.6399 9.87231 13.1169C10.3469 13.5939 10.9681 13.8975 11.636 13.9789C12.3039 14.0604 12.9798 13.9149 13.5551 13.5659M15.0001 10.9999C15.0001 10.2042 14.684 9.44117 14.1214 8.87856C13.5588 8.31595 12.7957 7.99988 12.0001 7.99988M17.152 17.1618L13.414 20.8998C13.039 21.2745 12.5306 21.4849 12.0005 21.4849C11.4704 21.4849 10.962 21.2745 10.587 20.8998L6.343 16.6568C4.92886 15.2427 4.09564 13.3502 4.00753 11.3523C3.91942 9.35439 4.58282 7.39591 5.867 5.86282M8.047 4.04282C9.57052 3.17792 11.3358 2.83683 13.0718 3.07189C14.8079 3.30695 16.4189 4.10517 17.6575 5.34407C18.8962 6.58296 19.6941 8.19408 19.9289 9.93019C20.1636 11.6663 19.8222 13.4315 18.957 14.9548M3 2.99988L21 20.9999" stroke="#303741" stroke-width="2" stroke-linecap="round" stroke-linejoin="round"/>
</svg>
