<svg width="24" height="24" viewBox="0 0 24 24" fill="none" xmlns="http://www.w3.org/2000/svg">
<path d="M12.02 21.485C11.7542 21.4878 11.4906 21.4375 11.2445 21.337C10.9984 21.2366 10.7749 21.088 10.587 20.9L6.34302 16.657C5.35238 15.6659 4.63945 14.4319 4.2756 13.0787C3.91175 11.7254 3.90974 10.3003 4.26978 8.94603C4.62982 7.59175 5.33927 6.35581 6.32712 5.36191C7.31498 4.368 8.54657 3.65102 9.89862 3.28272C11.2507 2.91442 12.6758 2.90772 14.0312 3.2633C15.3867 3.61888 16.6249 4.32427 17.6221 5.30884C18.6192 6.29342 19.3403 7.52264 19.713 8.87348C20.0858 10.2243 20.0971 11.6494 19.746 13.006M16 22L21 17M21 17V21.5M21 17H16.5M9 11C9 11.7956 9.31607 12.5587 9.87868 13.1213C10.4413 13.6839 11.2044 14 12 14C12.7956 14 13.5587 13.6839 14.1213 13.1213C14.6839 12.5587 15 11.7956 15 11C15 10.2044 14.6839 9.44129 14.1213 8.87868C13.5587 8.31607 12.7956 8 12 8C11.2044 8 10.4413 8.31607 9.87868 8.87868C9.31607 9.44129 9 10.2044 9 11Z" stroke="#303741" stroke-width="2" stroke-linecap="round" stroke-linejoin="round"/>
</svg>
